<svg id="bg-landing" xmlns="http://www.w3.org/2000/svg" xmlns:xlink="http://www.w3.org/1999/xlink" width="1920" height="4716.378" viewBox="0 0 1920 4716.378">
  <defs>
    <linearGradient id="linear-gradient" x1="0.452" y1="1.346" x2="0.439" y2="-0.61" gradientUnits="objectBoundingBox">
      <stop offset="0" stop-color="#fff"/>
      <stop offset="0.441" stop-color="#f1f1f1"/>
      <stop offset="0.727" stop-color="#7de2dd"/>
      <stop offset="1" stop-color="#35d4d4"/>
    </linearGradient>
    <linearGradient id="linear-gradient-2" x1="0.452" y1="1.346" x2="0.439" y2="-0.61" gradientUnits="objectBoundingBox">
      <stop offset="0" stop-color="#fff"/>
      <stop offset="0.228" stop-color="#fff"/>
      <stop offset="0.727" stop-color="#7de2dd"/>
      <stop offset="1" stop-color="#80e2e2"/>
    </linearGradient>
    <linearGradient id="linear-gradient-3" x1="0.452" y1="1.346" x2="0.449" y2="-0.174" xlink:href="#linear-gradient-2"/>
  </defs>
  <g id="Rectangle_33" data-name="Rectangle 33" fill="#fff" stroke="#707070" stroke-width="1" opacity="0">
    <rect width="1920" height="4716" stroke="none"/>
    <rect x="0.5" y="0.5" width="1919" height="4715" fill="none"/>
  </g>
  <g id="Group_70" data-name="Group 70" transform="translate(0 3623)">
    <path id="background-gradient" d="M1920,1093.378H0v-497.4S41.013,386.8,191.848,301.833,450.7,294.243,603.34,256.1c96.96-24.229,27.889-129.537,357.054-155.49,110.27-8.694,263.466,33.238,405.919,18.293C1650.318,89.108,1920,0,1920,0Z" fill="url(#linear-gradient)"/>
    <path id="background-gradient-2" data-name="background-gradient" d="M1920,1059.088H0V577.29S41.013,374.672,191.848,292.366s258.849-7.351,411.491-44.3C700.3,224.6,631.229,122.595,960.394,97.455c110.27-8.422,263.466,32.2,405.919,17.719C1650.318,86.313,1920,0,1920,0Z" transform="translate(0 34.291)" fill="url(#linear-gradient-2)"/>
    <path id="background-gradient-3" data-name="background-gradient" d="M1920,1024.8H0V558.6S41.013,362.541,191.848,282.9,450.7,275.787,603.34,240.037C700.3,217.328,631.229,118.625,960.394,94.3c110.27-8.149,263.466,31.153,405.919,17.146C1650.318,83.519,1920,0,1920,0Z" transform="translate(0 68.582)" fill="url(#linear-gradient-3)"/>
  </g>
</svg>
