<svg xmlns="http://www.w3.org/2000/svg" xmlns:xlink="http://www.w3.org/1999/xlink" width="612.688" height="416.075" viewBox="0 0 612.688 416.075">
  <defs>
    <linearGradient id="linear-gradient" x1="0.5" x2="0.5" y2="1.088" gradientUnits="objectBoundingBox">
      <stop offset="0" stop-color="#6500ff"/>
      <stop offset="1" stop-color="#80e2e2"/>
    </linearGradient>
    <linearGradient id="linear-gradient-2" x1="0.85" y1="0.842" x2="-0.097" y2="0.051" gradientUnits="objectBoundingBox">
      <stop offset="0" stop-color="#d02cdc"/>
      <stop offset="1" stop-color="#2ef397"/>
    </linearGradient>
    <filter id="Rectangle_24" x="34.584" y="43.916" width="188.983" height="151.266" filterUnits="userSpaceOnUse">
      <feOffset dy="3" input="SourceAlpha"/>
      <feGaussianBlur stdDeviation="3" result="blur"/>
      <feFlood flood-opacity="0.161"/>
      <feComposite operator="in" in2="blur"/>
      <feComposite in="SourceGraphic"/>
    </filter>
    <linearGradient id="linear-gradient-3" x1="0.5" x2="0.5" y2="1" gradientUnits="objectBoundingBox">
      <stop offset="0" stop-color="#36ec4e"/>
      <stop offset="1" stop-color="#24fd17"/>
    </linearGradient>
    <linearGradient id="linear-gradient-4" x1="0.5" x2="0.5" y2="1" gradientUnits="objectBoundingBox">
      <stop offset="0" stop-color="#0f2"/>
      <stop offset="1" stop-color="#6efb03"/>
    </linearGradient>
    <linearGradient id="linear-gradient-5" x1="-0.839" y1="0.062" x2="1.589" y2="1.347" gradientUnits="objectBoundingBox">
      <stop offset="0" stop-color="#e5e1e1"/>
      <stop offset="1" stop-color="#fff"/>
    </linearGradient>
    <linearGradient id="linear-gradient-15" x1="-0.106" y1="-0.575" x2="1" y2="1.303" gradientUnits="objectBoundingBox">
      <stop offset="0" stop-color="#53ec72"/>
      <stop offset="0.437" stop-color="#ccd12c"/>
      <stop offset="1" stop-color="#5718c5"/>
    </linearGradient>
    <linearGradient id="linear-gradient-16" x1="1.204" y1="0.599" x2="0.126" y2="0.62" gradientUnits="objectBoundingBox">
      <stop offset="0" stop-color="#3adfc3"/>
      <stop offset="1" stop-color="#26d531"/>
    </linearGradient>
  </defs>
  <g id="Freelancer_and_Teamwork" data-name="Freelancer and Teamwork" transform="translate(-821 -234.428)">
    <g id="Group_51" data-name="Group 51" transform="translate(821 234.428)">
      <g id="Group_49" data-name="Group 49" transform="translate(0)">
        <g id="Group_48" data-name="Group 48" transform="translate(0)">
          <g id="Group_47" data-name="Group 47">
            <g id="Group_38" data-name="Group 38" transform="translate(0 214.194)">
              <rect id="Rectangle_31" data-name="Rectangle 31" width="15.087" height="45.26" transform="translate(378.844 9.22)" fill="#e5e1e1"/>
              <rect id="Rectangle_32" data-name="Rectangle 32" width="15.087" height="45.26" transform="translate(343.641 9.22)" fill="#e5e1e1"/>
              <rect id="Rectangle_29" data-name="Rectangle 29" width="15.087" height="46.098" transform="translate(33.526 4.191)" fill="#e5e1e1"/>
              <rect id="Rectangle_30" data-name="Rectangle 30" width="15.087" height="46.098" transform="translate(108.959 4.191)" fill="#e5e1e1"/>
              <g id="Group_37" data-name="Group 37">
                <path id="Path_43" data-name="Path 43" d="M4120,972v9.22h82.139V972Z" transform="translate(-4120 -972)" fill="#e5e1e1"/>
                <path id="Path_44" data-name="Path 44" d="M4218,972v9.22h345.318V972Z" transform="translate(-4135.861 -972)" fill="#e5e1e1"/>
              </g>
            </g>
            <g id="Group_36" data-name="Group 36" transform="translate(187.587)">
              <path id="Path_23" data-name="Path 23" d="M4493.4,758s-12.572,36.04-6.705,50.289,25.145,20.116,25.145,20.116v11.734h28.5v-22.63s18.439-31.012,15.086-41.907S4493.4,758,4493.4,758Z" transform="translate(-4364.17 -723.17)" fill="#f5e4bc"/>
              <path id="Path_21" data-name="Path 21" d="M4528.191,845.058V835l-26.448,7.1-7.079,3.8-9.219,2.514a38.043,38.043,0,0,0-17.6,17.6c-5.867,12.572-17.6,28.5-17.6,28.5s-17.6,25.983-36.878,28.5a137.943,137.943,0,0,0-34.364,9.22v16.763s40.231-.838,46.1-4.191,39.393-16.763,42.746-21.792a18.405,18.405,0,0,1,7.543-6.705v56.156s-46.1,8.381-55.318,14.249a151.114,151.114,0,0,0-14.249,10.058h145.838l5.867-124.884s-2.514-20.954-12.572-23.468A156.9,156.9,0,0,0,4528.191,845.058Z" transform="translate(-4349.506 -735.633)" fill="url(#linear-gradient)"/>
              <path id="Path_22" data-name="Path 22" d="M4370.3,967.1V952.856s-13.411-1.676-17.6,0-11.734,8.382-11.734,8.382-1.676,5.029,5.867,5.867S4370.3,967.1,4370.3,967.1Z" transform="translate(-4340.811 -753.749)" fill="#f5e4bc"/>
              <path id="Path_24" data-name="Path 24" d="M4498.207,732.673H4491s.9,15.925,7.206,20.954,8.107,13.41,7.207,17.6a22.561,22.561,0,0,0,0,8.381h5.4s-5.4-6.705,0-8.381,9.008,5.867,9.008,12.572-4.5,17.6,3.6,21.792,10.81,10.9,18.917,5.029,18.917-26.821,18.917-26.821,14.413-26.821,13.512-30.173-11.71-18.439-19.818-20.954-4.5,0-4.5,0v-6.705l-27.024-7.543s-12.611-6.705-18.016,0A40.357,40.357,0,0,0,4498.207,732.673Z" transform="translate(-4366.795 -715.444)" fill="url(#linear-gradient-2)"/>
              <g id="Kursi" transform="translate(146.647 180.668)">
                <path id="Path_25" data-name="Path 25" d="M4570.224,999.89h-36.878s-10.058-.838-8.381-10.058,0-40.231,0-40.231,0-17.6,17.6-17.6h41.907s16.763,3.353,16.763,17.6v40.231s.838,8.382-7.543,10.058S4570.224,999.89,4570.224,999.89Z" transform="translate(-4524.775 -932)" fill="#e5e1e1"/>
                <path id="Path_26" data-name="Path 26" d="M4570.224,999.89h-36.878s-10.058-.838-8.381-10.058,0-40.231,0-40.231,0-17.6,17.6-17.6h41.907s16.763,3.353,16.763,17.6v40.231s.838,8.382-7.543,10.058S4570.224,999.89,4570.224,999.89Z" transform="translate(-4518.908 -932)" fill="#9e9999"/>
              </g>
              <path id="Path_27" data-name="Path 27" d="M4579,1021.012V993.353s3.981-3.353,7.543-3.353,6.705,3.353,6.705,3.353v27.659Z" transform="translate(-4391.096 -756.529)" fill="#e5e1e1"/>
            </g>
            <g id="Group_41" data-name="Group 41" transform="translate(98.343 87.354)">
              <path id="Path_33" data-name="Path 33" d="M4293.962,828.667l-61.3,47.726,3.014,5.578Z" transform="translate(-4232.667 -828.667)" fill="#fff" opacity="0.27"/>
              <path id="Path_34" data-name="Path 34" d="M4293.962,828.667l-61.3,47.726,3.014,5.578Z" transform="translate(-4214.227 -826.152)" fill="#fff" opacity="0.27"/>
              <path id="Path_35" data-name="Path 35" d="M4293.962,828.667l-61.3,47.726,3.014,5.578Z" transform="translate(-4210.037 -822.8)" fill="#fff" opacity="0.27"/>
              <path id="Path_36" data-name="Path 36" d="M4293.962,828.667l-61.3,47.726,3.014,5.578Z" transform="translate(-4196.626 -810.227)" fill="#fff" opacity="0.27"/>
              <path id="Path_37" data-name="Path 37" d="M4293.962,828.667l-61.3,47.726,3.014,5.578Z" transform="translate(-4183.216 -812.742)" fill="#fff" opacity="0.27"/>
            </g>
            <g id="Group_40" data-name="Group 40" transform="translate(39.393 45.206)">
              <g id="Awan" transform="translate(8.94 77.7)">
                <path id="Path_31" data-name="Path 31" d="M4172.667,708.588V676.366s27.379-4.261,45.26-3.073,18.16,3.353,26.262,7.823,6.146,10.058,6.146,10.058.559-9.5,8.381-6.705,6.706,9.5,6.706,9.5,8.939-7.823,14.527,0,2.794,14.621,2.794,14.621Z" transform="translate(-4172.667 -673.084)" fill="#fff" opacity="0.6"/>
                <path id="Path_32" data-name="Path 32" d="M4172.667,708.588V676.366s19.3-4.261,31.905-3.073,12.8,3.353,18.512,7.823,4.333,10.058,4.333,10.058.394-9.5,5.908-6.705,4.727,9.5,4.727,9.5,6.3-7.823,10.241,0a21.64,21.64,0,0,1,1.97,14.621Z" transform="translate(-4172.667 -673.084)" fill="#fff" opacity="0.6"/>
              </g>
              <g id="Group_35" data-name="Group 35">
                <g id="Computer" transform="translate(0 4.71)">
                  <g id="Group_29" data-name="Group 29" transform="translate(51.127 120.694)">
                    <path id="Rectangle_26" data-name="Rectangle 26" d="M0,0H32.688a0,0,0,0,1,0,0V43.584a0,0,0,0,1,0,0H10a10,10,0,0,1-10-10V0A0,0,0,0,1,0,0Z" fill="#e5e1e1"/>
                    <path id="Rectangle_27" data-name="Rectangle 27" d="M0,0H32.688a0,0,0,0,1,0,0V43.584a0,0,0,0,1,0,0H10a10,10,0,0,1-10-10V0A0,0,0,0,1,0,0Z" transform="translate(4.191)" fill="#fff"/>
                  </g>
                  <g id="Group_28" data-name="Group 28" transform="translate(0 0)">
                    <rect id="Rectangle_23" data-name="Rectangle 23" width="170.983" height="133.266" rx="13" fill="#e5e1e1"/>
                    <g transform="matrix(1, 0, 0, 1, -39.39, -49.92)" filter="url(#Rectangle_24)">
                      <rect id="Rectangle_24-2" data-name="Rectangle 24" width="170.983" height="133.266" rx="13" transform="translate(43.58 49.92)" fill="#fff"/>
                    </g>
                    <path id="Rectangle_25" data-name="Rectangle 25" d="M13,0H157.983a13,13,0,0,1,13,13v98.474a0,0,0,0,1,0,0H0a0,0,0,0,1,0,0V13A13,13,0,0,1,13,0Z" transform="translate(4.191)" fill="#80e2e2"/>
                  </g>
                </g>
                <path id="Path_38" data-name="Path 38" d="M4293.962,828.667l-61.3,47.726,3.014,5.578Z" transform="translate(-4177.907 -784.005)" fill="#fff" opacity="0.27"/>
                <path id="Path_39" data-name="Path 39" d="M4293.962,828.667l-61.3,47.726,3.014,5.578Z" transform="translate(-4159.468 -781.49)" fill="#fff" opacity="0.27"/>
                <path id="Path_40" data-name="Path 40" d="M4293.962,828.667l-61.3,47.726,3.014,5.578Z" transform="translate(-4155.277 -778.138)" fill="#fff" opacity="0.27"/>
                <path id="Path_41" data-name="Path 41" d="M4293.962,828.667l-61.3,47.726,3.014,5.578Z" transform="translate(-4141.867 -765.565)" fill="#fff" opacity="0.27"/>
                <path id="Path_42" data-name="Path 42" d="M4293.962,828.667l-61.3,47.726,3.014,5.578Z" transform="translate(-4128.457 -768.08)" fill="#fff" opacity="0.27"/>
                <g id="Duid" transform="translate(149.249 0) rotate(41)">
                  <g id="Group_34" data-name="Group 34" transform="translate(34.364 12.6)">
                    <g id="Group_30" data-name="Group 30" transform="translate(4.642)">
                      <path id="Path_28" data-name="Path 28" d="M2.135,13.181S-.181,8.12.011,5.44.4.677,2.135.975s2.316,2.382,3.86,2.084S7.925.379,10.435.975s2.316,2.382,4.439,2.084S18.154-2,19.893.975s.964,5.359,0,7.442-1.931,4.763-1.931,4.763Z" transform="translate(0.084)" fill="#80e2e2"/>
                      <path id="Path_29" data-name="Path 29" d="M.2,0S1.417,3.275,3.346,3.275,6.819-.3,9.135,1.488s3.666,2.679,5.4,1.786S18.2.3,18.975,1.488s1.929,0,1.929,0A21.21,21.21,0,0,1,19.9,5.517c-.772,2.158-1.572,4.6-1.572,4.6H2.188S.237,5.359.054,3.275A10.233,10.233,0,0,1,.2,0Z" transform="translate(0 3.059)" fill="url(#linear-gradient-3)"/>
                    </g>
                    <path id="Path_30" data-name="Path 30" d="M6.78.3S-.249,15.207.007,20.575s.639,7.231,6.646,9.542,11.246,1.714,17.38-.3a7.047,7.047,0,0,0,5.049-7.9L22.82,0Z" transform="translate(0 15.814)" fill="url(#linear-gradient-4)"/>
                    <rect id="Rectangle_28" data-name="Rectangle 28" width="18.439" height="3.353" rx="1.676" transform="translate(5.052 12.572)" fill="#e5e1e1"/>
                    <g id="Group_16" data-name="Group 16" transform="translate(8.916 22.411)">
                      <path id="Path_15" data-name="Path 15" d="M0,0V20.073H2.89V0Z" transform="translate(4.153)" fill="url(#linear-gradient-5)"/>
                      <path id="Path_16" data-name="Path 16" d="M9.932.693A10.262,10.262,0,0,0,5.495.022,6.729,6.729,0,0,0,1.831,1.364,5.086,5.086,0,0,0,.093,4.5,5.155,5.155,0,0,0,.541,7.608a4.806,4.806,0,0,0,2.374,2.563c1.652.641,3.553.341,4.237.464.845.152,1.389,1.122,1.542,2.339s-.181,1.213-1.238,2.064a3.886,3.886,0,0,1-2.787.516l-3.2-.516V17.1a12.784,12.784,0,0,0,4.645.619A4.655,4.655,0,0,0,10.4,15.193a3.885,3.885,0,0,0,.671-3.2,7.545,7.545,0,0,0-2.632-3.3c-1.7-.981-2.735.155-4.18-.619A2.709,2.709,0,0,1,2.5,5.131c.1-1.342.336-2.348,2.167-2.89s5.263.516,5.263.516Z" transform="translate(0 1.216)" fill="url(#linear-gradient-5)"/>
                    </g>
                  </g>
                  <g id="Group_31" data-name="Group 31" transform="translate(3.353)">
                    <g id="Group_30-2" data-name="Group 30" transform="translate(5.876)">
                      <path id="Path_28-2" data-name="Path 28" d="M2.7,16.683S-.229,10.277.014,6.886.5.857,2.7,1.234,5.634,4.248,7.588,3.871,10.031.48,13.207,1.234s2.931,3.014,5.618,2.638,4.153-6.406,6.352-2.638,1.221,6.782,0,9.42-2.443,6.029-2.443,6.029Z" transform="translate(0.107)" fill="#80e2e2"/>
                      <path id="Path_29-2" data-name="Path 29" d="M.253,0S1.793,4.145,4.235,4.145s4.4-4.522,7.326-2.261S16.2,5.275,18.4,4.145,23.04.377,24.017,1.884s2.442,0,2.442,0a26.831,26.831,0,0,1-1.274,5.1c-.977,2.732-1.989,5.828-1.989,5.828H2.77S.3,6.782.07,4.145A12.94,12.94,0,0,1,.253,0Z" transform="translate(0 3.872)" fill="url(#linear-gradient-3)"/>
                    </g>
                    <path id="Path_30-2" data-name="Path 30" d="M8.581.377S-.315,19.248.009,26.042.817,35.194,8.42,38.119s14.234,2.17,22-.378a8.919,8.919,0,0,0,6.39-10L28.882,0Z" transform="translate(0 20.015)" fill="url(#linear-gradient-4)"/>
                    <rect id="Rectangle_28-2" data-name="Rectangle 28" width="23.468" height="3.353" rx="1.676" transform="translate(6.728 16.791)" fill="#e5e1e1"/>
                    <g id="Group_16-2" data-name="Group 16" transform="translate(11.285 28.366)">
                      <path id="Path_15-2" data-name="Path 15" d="M0,0V25.406H3.657V0Z" transform="translate(5.256)" fill="url(#linear-gradient-5)"/>
                      <path id="Path_16-2" data-name="Path 16" d="M12.571.877A12.99,12.99,0,0,0,6.954.028a8.518,8.518,0,0,0-4.637,1.7A6.439,6.439,0,0,0,.117,5.7,6.529,6.529,0,0,0,.684,9.629a6.084,6.084,0,0,0,3,3.245c2.092.811,4.5.432,5.363.588,1.069.192,1.758,1.42,1.951,2.96s-.228,1.535-1.567,2.612a4.918,4.918,0,0,1-3.527.653L1.86,19.034v2.612a16.181,16.181,0,0,0,5.878.784c2.874-.261,3.951-.947,5.421-3.2a4.913,4.913,0,0,0,.849-4.049A9.55,9.55,0,0,0,10.677,11c-2.156-1.241-3.462.2-5.29-.784S3.036,8.192,3.166,6.494s.425-2.972,2.743-3.658,6.662.653,6.662.653Z" transform="translate(0 1.539)" fill="url(#linear-gradient-5)"/>
                    </g>
                  </g>
                  <g id="Group_33" data-name="Group 33" transform="translate(0 41.097)">
                    <g id="Group_30-3" data-name="Group 30" transform="translate(2.181)">
                      <path id="Path_28-3" data-name="Path 28" d="M1,6.191a10.736,10.736,0,0,1-1-3.636C.1,1.3.187.318,1,.458s1.088,1.119,1.813.979S3.723.178,4.9.458s1.088,1.119,2.085.979S8.528-.941,9.344.458a3.427,3.427,0,0,1,0,3.5c-.454.979-.907,2.238-.907,2.238Z" transform="translate(0.04)" fill="#80e2e2"/>
                      <path id="Path_29-3" data-name="Path 29" d="M.094,0S.666,1.538,1.572,1.538,3.2-.14,4.291.7s1.722,1.259,2.538.839S8.551.14,8.914.7,9.82.7,9.82.7a9.955,9.955,0,0,1-.473,1.892c-.363,1.014-.738,2.163-.738,2.163H1.028a17.266,17.266,0,0,1-1-3.216A4.8,4.8,0,0,1,.094,0Z" transform="translate(0 1.437)" fill="url(#linear-gradient-3)"/>
                    </g>
                    <path id="Path_30-3" data-name="Path 30" d="M3.185.14s-3.3,7-3.181,9.525.3,3.4,3.122,4.482,5.283.805,8.164-.14A3.31,3.31,0,0,0,13.661,10.3L10.719,0Z" transform="translate(0 7.428)" fill="url(#linear-gradient-4)"/>
                    <rect id="Rectangle_28-3" data-name="Rectangle 28" width="8.381" height="1.676" rx="0.838" transform="translate(2.537 5.867)" fill="#e5e1e1"/>
                    <g id="Group_16-3" data-name="Group 16" transform="translate(4.188 10.528)">
                      <path id="Path_15-3" data-name="Path 15" d="M0,0V9.429H1.357V0Z" transform="translate(1.951)" fill="url(#linear-gradient-5)"/>
                      <path id="Path_16-3" data-name="Path 16" d="M4.665.326A4.82,4.82,0,0,0,2.581.01,3.161,3.161,0,0,0,.86.641,2.39,2.39,0,0,0,.043,2.115a2.421,2.421,0,0,0,.21,1.459,2.258,2.258,0,0,0,1.115,1.2A6.768,6.768,0,0,0,3.359,5c.4.071.652.527.724,1.1s-.085.57-.582.97a1.826,1.826,0,0,1-1.309.242L.69,7.064v.969a6.006,6.006,0,0,0,2.182.291A2.187,2.187,0,0,0,4.884,7.137a1.824,1.824,0,0,0,.315-1.5A3.543,3.543,0,0,0,3.962,4.083c-.8-.461-1.285.073-1.963-.291A1.273,1.273,0,0,1,1.175,2.41,1.256,1.256,0,0,1,2.193,1.053,5.788,5.788,0,0,1,4.665,1.3Z" transform="translate(0 0.571)" fill="url(#linear-gradient-5)"/>
                    </g>
                  </g>
                </g>
                <g id="Awan-2" data-name="Awan" transform="translate(4.749 80.214)">
                  <path id="Path_31-2" data-name="Path 31" d="M4172.667,708.588V676.366s27.379-4.261,45.26-3.073,18.16,3.353,26.262,7.823,6.146,10.058,6.146,10.058.559-9.5,8.381-6.705,6.706,9.5,6.706,9.5,8.939-7.823,14.527,0,2.794,14.621,2.794,14.621Z" transform="translate(-4172.667 -673.084)" fill="#fff" opacity="0.6"/>
                  <path id="Path_32-2" data-name="Path 32" d="M4172.667,708.588V676.366s19.3-4.261,31.905-3.073,12.8,3.353,18.512,7.823,4.333,10.058,4.333,10.058.394-9.5,5.908-6.705,4.727,9.5,4.727,9.5,6.3-7.823,10.241,0a21.64,21.64,0,0,1,1.97,14.621Z" transform="translate(-4172.667 -673.084)" fill="#fff" opacity="0.6"/>
                </g>
              </g>
            </g>
          </g>
          <g id="Group_46" data-name="Group 46" transform="translate(158.281 116.982)">
            <g id="Group_11" data-name="Group 11">
              <g id="Group_9" data-name="Group 9" transform="translate(0)">
                <g id="Group_8" data-name="Group 8">
                  <g id="Group_7" data-name="Group 7" transform="translate(0 181.508)">
                    <path id="Path_11" data-name="Path 11" d="M14.109,0H278.921l16.863,97.431H-9Z" transform="translate(9)" fill="#9a9595"/>
                    <path id="Path_10" data-name="Path 10" d="M15.61,0H280.423l14.989,88.063H-5Z" transform="translate(7.498)" fill="url(#linear-gradient-15)"/>
                  </g>
                  <g id="Group_6" data-name="Group 6" transform="translate(61.465)">
                    <path id="Path_4" data-name="Path 4" d="M3932.864,618.561s8.432-.625,8.743,1.561a12.731,12.731,0,0,0,2.187,4.684s2.811-1.249,8.119,2.186,10.93,9.681,10.93,9.681l2.5,9.368s6.87,20.923,6.246,24.358,8.431,37.161,8.431,37.161l-4.372,21.547s-5.621,11.867-7.807,11.867-14.677-2.5-14.677-2.5l-62.143,2.5H3829.5l2.81-104.3,20.61-16.551L3876.342,617Z" transform="translate(-3797.593 -551.035)" fill="#80e2e2"/>
                    <path id="Path_6" data-name="Path 6" d="M3792.334,799.2l-7.495-11.242s-5-10.305-4.372-13.74,2.186-13.74,2.186-13.74l2.186-10.617s13.428-6.558,18.736-1.874,6.558,10.305,6.558,12.491.312,6.246,0,10.93,15.82,23.109,8.95,27.793-15.509,9.326-15.509,9.326Z" transform="translate(-3780.414 -595.833)" fill="#f5e4bc"/>
                    <path id="Path_5" data-name="Path 5" d="M3830.84,623.988a40.727,40.727,0,0,0-9.993,3.123s-10.929,15.926-12.491,16.863-3.123,9.681-4.372,12.179-6.558,14.052-6.558,14.052-5.309,10.93-5.933,14.677-1.561,8.744-1.561,8.744l-6.246,8.744-2.186,6.87s13.428.625,15.927,1.249,7.807,4.06,7.807,4.06l7.182,7.807,6.246-5.933,2.186-7.182,5.933-12.491,4.06-7.807,1.249-22.172,1.561-12.8,1.249-16.238S3835.524,623.364,3830.84,623.988Z" transform="translate(-3778.948 -553.652)" fill="#80e2e2"/>
                    <path id="Path_9" data-name="Path 9" d="M33.878,0C44.942,0,60.109,17.175,60.109,17.175s1.561,16.83,1.561,24.358c0,21.386-8.533,29.979-25.607,29.979S8.271,62.919,8.271,41.533c0-8.362-1.43-17.324,1.249-24.358A26.433,26.433,0,0,1,33.878,0Z" transform="translate(74.225 19.123)" fill="#fff2d5"/>
                    <path id="Path_8" data-name="Path 8" d="M3956.18,570.164c-.546-6.089,2.81-19.049,0-21.547s-5.933-8.119-9.056-5-6.558,5.855-12.8,6.246-7.26-3.123-12.179-4.684-4.294-2.42-7.495-1.561-5.309,5-5.309,5-.937,18.737,0,21.547-.625,8.432-3.123,0-8.432-28.73-6.87-33.726,2.186-9.056,6.87-11.554a8.491,8.491,0,0,1,8.431,0s-.937-12.491,13.74-13.428,34.975,7.182,39.035,16.238-1.874,20.923-1.874,20.923l-4.684,21.547S3956.727,576.253,3956.18,570.164Z" transform="translate(-3824.344 -511.382)" fill="url(#linear-gradient-16)"/>
                    <path id="Path_3" data-name="Path 3" d="M3941.969,636.7s3.437-10.077,7.184-11.326,6.246-1.874,6.246-1.874,2.186,3.123,0,4.372-4.06,6.558-4.06,6.558-2.186,4.06-2.186,7.495v8.119s0,4.06,2.186,4.684,4.06,5.933,4.06,5.933l4.684,6.558,41.532,46.53s7.182,18.737,2.5,22.8-11.242,11.242-11.242,11.242-7.807,0-10.617-4.06-13.428-10.618-17.176-18.112-7.495-27.168-9.68-28.417-11.554-21.235-11.554-21.235-4.372-8.744-9.993-8.744a10.378,10.378,0,0,1-8.431-4.684s-5-5.309-7.807-5.309-8.119-2.5-8.119-2.5-2.186-2.811-1.561-4.684,1.249-12.323,1.561-13.344,2.81-4.768,5.621-5.393,5.621-.625,10.305,0,10.929,5.393,10.929,5.393Z" transform="translate(-3819.504 -549.104)" fill="#fbe7b8"/>
                    <path id="Path_7" data-name="Path 7" d="M3801,857.442V775h138.652v82.442Z" transform="translate(-3781.897 -610.355)" fill="#efefef"/>
                  </g>
                </g>
                <text id="_freelancer_" data-name="&lt;freelancer&gt;" transform="translate(116.61 191.144)" fill="#80e2e2" font-size="12" font-family="SegoeUI, Segoe UI"><tspan x="0" y="13">&lt;freelancer&gt;</tspan></text>
              </g>
            </g>
          </g>
        </g>
      </g>
      <g id="Group_50" data-name="Group 50" transform="translate(217.081 320.178)">
        <path id="Path_49" data-name="Path 49" d="M3314,2287.048s1.593-39.674,22.295-49.937,42.578,8.885,42.578,8.885,8.007-42.047,77.319-44.5,91.976,72.9,91.976,72.9,18.886-20.02,32.673-12.465,12.43,25.119,12.43,25.119Z" transform="translate(-3314 -2201.434)" fill="#fff" opacity="0.65"/>
        <path id="Path_50" data-name="Path 50" d="M3314,2245.366s.817-20.358,11.44-25.625,21.848,4.559,21.848,4.559,4.108-21.576,39.675-22.836,47.2,37.408,47.2,37.408,9.691-10.273,16.766-6.4,6.378,12.889,6.378,12.889Z" transform="translate(-3125.416 -2149.469)" fill="#fff"/>
      </g>
    </g>
    <g id="Group_52" data-name="Group 52" transform="translate(1198.167 460.37)">
      <line id="Line_9" data-name="Line 9" x2="225.982" transform="translate(4.598 5.912)" fill="none" stroke="#0f0f0f" stroke-width="1"/>
      <line id="Line_11" data-name="Line 11" x2="99.852" transform="translate(75.546 49.269)" fill="none" stroke="#0f0f0f" stroke-width="1"/>
      <path id="Path_51" data-name="Path 51" d="M0,46.255V1.67" transform="translate(76.86 4.328)" fill="none" stroke="#0f0f0f" stroke-width="1"/>
      <line id="Line_12" data-name="Line 12" y1="45.985" transform="translate(174.085 4.598)" fill="none" stroke="#0f0f0f" stroke-width="1"/>
      <circle id="Ellipse_11" data-name="Ellipse 11" cx="5.448" cy="5.448" r="5.448" transform="translate(0 0)" fill="#443efc"/>
      <circle id="Ellipse_12" data-name="Ellipse 12" cx="5.448" cy="5.448" r="5.448" transform="translate(35.202 0)" fill="#443efc"/>
      <ellipse id="Ellipse_14" data-name="Ellipse 14" cx="5.029" cy="5.448" rx="5.029" ry="5.448" transform="translate(115.665 0)" fill="#443efc"/>
      <circle id="Ellipse_16" data-name="Ellipse 16" cx="5.448" cy="5.448" r="5.448" transform="translate(169.306 0)" fill="#443efc"/>
      <circle id="Ellipse_17" data-name="Ellipse 17" cx="5.448" cy="5.448" r="5.448" transform="translate(224.624 0)" fill="#443efc"/>
      <circle id="Ellipse_13" data-name="Ellipse 13" cx="5.448" cy="5.448" r="5.448" transform="translate(72.081 44.422)" fill="#36ec4e"/>
      <circle id="Ellipse_15" data-name="Ellipse 15" cx="5.448" cy="5.448" r="5.448" transform="translate(169.306 44.422)" fill="#36ec4e"/>
    </g>
  </g>
</svg>
