<svg xmlns="http://www.w3.org/2000/svg" xmlns:xlink="http://www.w3.org/1999/xlink" width="785.036" height="520.455" viewBox="0 0 785.036 520.455">
  <defs>
    <linearGradient id="linear-gradient" x1="0.5" x2="0.5" y2="1.088" gradientUnits="objectBoundingBox">
      <stop offset="0" stop-color="#6500ff"/>
      <stop offset="1" stop-color="#80e2e2"/>
    </linearGradient>
    <linearGradient id="linear-gradient-2" x1="0.85" y1="0.842" x2="-0.097" y2="0.051" gradientUnits="objectBoundingBox">
      <stop offset="0" stop-color="#d02cdc"/>
      <stop offset="1" stop-color="#2ef397"/>
    </linearGradient>
    <filter id="Rectangle_24" x="183.605" y="131.129" width="171.498" height="137.638" filterUnits="userSpaceOnUse">
      <feOffset dy="3" input="SourceAlpha"/>
      <feGaussianBlur stdDeviation="3" result="blur"/>
      <feFlood flood-opacity="0.161"/>
      <feComposite operator="in" in2="blur"/>
      <feComposite in="SourceGraphic"/>
    </filter>
    <linearGradient id="linear-gradient-3" x1="0.5" x2="0.5" y2="1" gradientUnits="objectBoundingBox">
      <stop offset="0" stop-color="#80e2e2"/>
      <stop offset="0.51" stop-color="#618eef"/>
      <stop offset="1" stop-color="#b34fcf"/>
    </linearGradient>
    <linearGradient id="linear-gradient-4" x1="0.5" x2="0.5" y2="1" gradientUnits="objectBoundingBox">
      <stop offset="0" stop-color="#36ec4e"/>
      <stop offset="1" stop-color="#24fd17"/>
    </linearGradient>
    <linearGradient id="linear-gradient-5" x1="0.5" x2="0.5" y2="1" gradientUnits="objectBoundingBox">
      <stop offset="0" stop-color="#0f2"/>
      <stop offset="1" stop-color="#6efb03"/>
    </linearGradient>
    <linearGradient id="linear-gradient-6" x1="-0.839" y1="0.062" x2="1.589" y2="1.347" gradientUnits="objectBoundingBox">
      <stop offset="0" stop-color="#e5e1e1"/>
      <stop offset="1" stop-color="#fff"/>
    </linearGradient>
    <linearGradient id="linear-gradient-16" x1="-0.106" y1="-0.575" x2="1" y2="1.303" gradientUnits="objectBoundingBox">
      <stop offset="0" stop-color="#53ec72"/>
      <stop offset="0.437" stop-color="#ccd12c"/>
      <stop offset="1" stop-color="#5718c5"/>
    </linearGradient>
    <linearGradient id="linear-gradient-17" x1="1.204" y1="0.599" x2="0.126" y2="0.62" gradientUnits="objectBoundingBox">
      <stop offset="0" stop-color="#3adfc3"/>
      <stop offset="0.444" stop-color="#31db82"/>
      <stop offset="0.63" stop-color="#37a6ab"/>
      <stop offset="1" stop-color="#be41d4"/>
    </linearGradient>
    <linearGradient id="linear-gradient-18" x1="0.215" y1="0.104" x2="1.078" y2="0.88" gradientUnits="objectBoundingBox">
      <stop offset="0" stop-color="#edf1ed"/>
      <stop offset="0.363" stop-color="#2fcd44"/>
      <stop offset="0.622" stop-color="#229431"/>
      <stop offset="1" stop-color="#05310b"/>
    </linearGradient>
    <linearGradient id="linear-gradient-19" x1="0.215" y1="0.896" x2="1.078" y2="0.12" xlink:href="#linear-gradient-18"/>
    <linearGradient id="linear-gradient-21" x1="0.785" y1="0.104" x2="-0.078" y2="0.88" xlink:href="#linear-gradient-18"/>
    <linearGradient id="linear-gradient-22" x1="0.5" x2="0.5" y2="1" gradientUnits="objectBoundingBox">
      <stop offset="0" stop-color="#443efc"/>
      <stop offset="0.563" stop-color="#322db7"/>
      <stop offset="1" stop-color="#221f7e"/>
    </linearGradient>
  </defs>
  <g id="Freelancer_Illustration" data-name="Freelancer Illustration" transform="translate(-432.369 -82.309)">
    <path id="Path_70" data-name="Path 70" d="M561.987,21.41c260.421,93.277-57.692,111.339,154.473,258.8s-348.576,138.3-348.576,138.3-379.309,48.012-379.309-73.6c0-62.507,157.455-121.019,17.793-226.453S301.566-71.867,561.987,21.41Z" transform="translate(453 101)" fill="#36ec4e" opacity="0.15"/>
    <path id="Path_67" data-name="Path 67" d="M315.046,0c173.7,0,314.4,13.82,314.4,47.065s-140.693,73.325-314.4,73.325S-4.561,81,2.364,47.065,141.342,0,315.046,0Z" transform="translate(494.017 482.374)" fill="#443efc" opacity="0.52"/>
    <ellipse id="Ellipse_20" data-name="Ellipse 20" cx="314.5" cy="46.5" rx="314.5" ry="46.5" transform="translate(495 482)" fill="#443efc" opacity="0.52"/>
    <g id="Freelancer_and_Teamwork" data-name="Freelancer and Teamwork" transform="translate(585.847 174.627)">
      <g id="Group_51" data-name="Group 51" transform="translate(0 0)">
        <g id="Group_49" data-name="Group 49" transform="translate(0)">
          <g id="Group_48" data-name="Group 48" transform="translate(0)">
            <g id="Group_47" data-name="Group 47">
              <g id="Group_38" data-name="Group 38" transform="translate(0 192.29)">
                <rect id="Rectangle_31" data-name="Rectangle 31" width="13.544" height="40.632" transform="translate(340.103 8.277)" fill="#e5e1e1"/>
                <rect id="Rectangle_32" data-name="Rectangle 32" width="13.544" height="40.632" transform="translate(308.5 8.277)" fill="#e5e1e1"/>
                <rect id="Rectangle_29" data-name="Rectangle 29" width="13.544" height="139.523" transform="translate(30.098 3.762)" fill="#e5e1e1"/>
                <rect id="Rectangle_30" data-name="Rectangle 30" width="13.544" height="150.057" transform="translate(97.817 3.762)" fill="#e5e1e1"/>
                <g id="Group_37" data-name="Group 37">
                  <path id="Path_43" data-name="Path 43" d="M4120,972v8.277h73.739V972Z" transform="translate(-4120 -972)" fill="#e5e1e1"/>
                  <path id="Path_44" data-name="Path 44" d="M4218,972v8.277h310.005V972Z" transform="translate(-4144.261 -972)" fill="#e5e1e1"/>
                </g>
              </g>
              <g id="Group_36" data-name="Group 36" transform="translate(168.404)">
                <path id="Path_23" data-name="Path 23" d="M4492.559,758s-11.287,32.355-6.02,45.146,22.573,18.059,22.573,18.059v10.534H4534.7V811.423s16.554-27.84,13.544-37.622S4492.559,758,4492.559,758Z" transform="translate(-4376.541 -726.732)" fill="#f5e4bc"/>
                <path id="Path_21" data-name="Path 21" d="M4512.935,844.029V835l-23.743,6.37-6.354,3.411-8.277,2.257a34.152,34.152,0,0,0-15.8,15.8c-5.267,11.287-15.8,25.583-15.8,25.583s-15.8,23.326-33.107,25.583a123.835,123.835,0,0,0-30.85,8.277v15.049s36.117-.752,41.384-3.762,35.365-15.049,38.375-19.563a16.524,16.524,0,0,1,6.772-6.02V958.4s-41.384,7.524-49.661,12.791a135.672,135.672,0,0,0-12.792,9.029H4534l5.267-112.113s-2.257-18.811-11.286-21.068A140.862,140.862,0,0,0,4512.935,844.029Z" transform="translate(-4352.522 -745.794)" fill="url(#linear-gradient)"/>
                <path id="Path_22" data-name="Path 22" d="M4367.289,965.571V952.78s-12.039-1.5-15.8,0-10.534,7.524-10.534,7.524-1.5,4.515,5.267,5.267S4367.289,965.571,4367.289,965.571Z" transform="translate(-4340.811 -774.034)" fill="#f5e4bc"/>
                <path id="Path_24" data-name="Path 24" d="M4497.47,730.911H4491s.809,14.3,6.469,18.811,7.278,12.039,6.47,15.8a20.258,20.258,0,0,0,0,7.524h4.852s-4.852-6.019,0-7.524,8.087,5.267,8.087,11.287-4.043,15.8,3.235,19.563,9.7,9.782,16.982,4.515,16.982-24.078,16.982-24.078,12.939-24.078,12.13-27.088-10.513-16.554-17.791-18.811-4.043,0-4.043,0v-6.019l-24.26-6.772s-11.322-6.02-16.174,0A36.223,36.223,0,0,0,4497.47,730.911Z" transform="translate(-4379.497 -715.444)" fill="url(#linear-gradient-2)"/>
                <g id="Kursi" transform="translate(131.65 162.192)">
                  <path id="Path_25" data-name="Path 25" d="M4565.576,992.948h-33.107s-9.029-.752-7.524-9.029,0-36.117,0-36.117,0-15.8,15.8-15.8h37.622s15.049,3.01,15.049,15.8v36.117s.752,7.524-6.772,9.029S4565.576,992.948,4565.576,992.948Z" transform="translate(-4524.775 -932)" fill="#e5e1e1"/>
                  <path id="Path_26" data-name="Path 26" d="M4565.576,992.948h-33.107s-9.029-.752-7.524-9.029,0-36.117,0-36.117,0-15.8,15.8-15.8h37.622s15.049,3.01,15.049,15.8v36.117s.752,7.524-6.772,9.029S4565.576,992.948,4565.576,992.948Z" transform="translate(-4519.508 -932)" fill="#9e9999"/>
                </g>
                <path id="Path_27" data-name="Path 27" d="M4579,1017.84V993.01s3.574-3.01,6.772-3.01,6.02,3.01,6.02,3.01v24.831Z" transform="translate(-4410.311 -780.404)" fill="#e5e1e1"/>
              </g>
              <g id="Group_41" data-name="Group 41" transform="translate(88.286 78.421)">
                <path id="Path_33" data-name="Path 33" d="M4287.694,828.667l-55.027,42.845,2.706,5.008Z" transform="translate(-4232.667 -828.667)" fill="#fff" opacity="0.27"/>
                <path id="Path_34" data-name="Path 34" d="M4287.694,828.667l-55.027,42.845,2.706,5.008Z" transform="translate(-4216.113 -826.409)" fill="#fff" opacity="0.27"/>
                <path id="Path_35" data-name="Path 35" d="M4287.694,828.667l-55.027,42.845,2.706,5.008Z" transform="translate(-4212.351 -823.4)" fill="#fff" opacity="0.27"/>
                <path id="Path_36" data-name="Path 36" d="M4287.694,828.667l-55.027,42.845,2.706,5.008Z" transform="translate(-4200.312 -812.113)" fill="#fff" opacity="0.27"/>
                <path id="Path_37" data-name="Path 37" d="M4287.694,828.667l-55.027,42.845,2.706,5.008Z" transform="translate(-4188.272 -814.37)" fill="#fff" opacity="0.27"/>
              </g>
              <g id="Group_40" data-name="Group 40" transform="translate(35.365 40.583)">
                <g id="Awan" transform="translate(8.026 69.754)">
                  <path id="Path_31" data-name="Path 31" d="M4172.667,704.958V676.031s24.579-3.825,40.631-2.759,16.3,3.01,23.577,7.023,5.518,9.029,5.518,9.029.5-8.528,7.524-6.02,6.02,8.528,6.02,8.528,8.026-7.023,13.042,0,2.508,13.126,2.508,13.126Z" transform="translate(-4172.667 -673.084)" fill="#fff" opacity="0.6"/>
                  <path id="Path_32" data-name="Path 32" d="M4172.667,704.958V676.031s17.326-3.825,28.642-2.759,11.492,3.01,16.619,7.023,3.891,9.029,3.891,9.029.353-8.528,5.3-6.02,4.243,8.528,4.243,8.528,5.657-7.023,9.193,0a19.425,19.425,0,0,1,1.769,13.126Z" transform="translate(-4172.667 -673.084)" fill="#fff" opacity="0.6"/>
                </g>
                <g id="Group_35" data-name="Group 35">
                  <g id="Computer" transform="translate(0 4.229)">
                    <g id="Group_29" data-name="Group 29" transform="translate(45.899 108.351)">
                      <path id="Rectangle_26" data-name="Rectangle 26" d="M0,0H29.345a0,0,0,0,1,0,0V39.127a0,0,0,0,1,0,0H10a10,10,0,0,1-10-10V0A0,0,0,0,1,0,0Z" fill="#e5e1e1"/>
                      <path id="Rectangle_27" data-name="Rectangle 27" d="M0,0H29.345a0,0,0,0,1,0,0V39.127a0,0,0,0,1,0,0H10a10,10,0,0,1-10-10V0A0,0,0,0,1,0,0Z" transform="translate(3.762)" fill="#fff"/>
                    </g>
                    <g id="Group_28" data-name="Group 28">
                      <rect id="Rectangle_23" data-name="Rectangle 23" width="153.498" height="119.638" rx="13" transform="translate(0 0)" fill="#e5e1e1"/>
                      <g transform="matrix(1, 0, 0, 1, -188.84, -137.13)" filter="url(#Rectangle_24)">
                        <rect id="Rectangle_24-2" data-name="Rectangle 24" width="153.498" height="119.638" rx="13" transform="translate(192.61 137.13)" fill="#fff"/>
                      </g>
                      <path id="Rectangle_25" data-name="Rectangle 25" d="M13,0H140.5a13,13,0,0,1,13,13v87.074a0,0,0,0,1,0,0H0a0,0,0,0,1,0,0V13A13,13,0,0,1,13,0Z" transform="translate(3.762 0)" fill="url(#linear-gradient-3)"/>
                    </g>
                  </g>
                  <path id="Path_38" data-name="Path 38" d="M4287.694,828.667l-55.027,42.845,2.706,5.008Z" transform="translate(-4183.507 -788.572)" fill="#fff" opacity="0.27"/>
                  <path id="Path_39" data-name="Path 39" d="M4287.694,828.667l-55.027,42.845,2.706,5.008Z" transform="translate(-4166.953 -786.315)" fill="#fff" opacity="0.27"/>
                  <path id="Path_40" data-name="Path 40" d="M4287.694,828.667l-55.027,42.845,2.706,5.008Z" transform="translate(-4163.191 -783.305)" fill="#fff" opacity="0.27"/>
                  <path id="Path_41" data-name="Path 41" d="M4287.694,828.667l-55.027,42.845,2.706,5.008Z" transform="translate(-4151.152 -772.018)" fill="#fff" opacity="0.27"/>
                  <path id="Path_42" data-name="Path 42" d="M4287.694,828.667l-55.027,42.845,2.706,5.008Z" transform="translate(-4139.113 -774.276)" fill="#fff" opacity="0.27"/>
                  <g id="Duid" transform="translate(133.987 0) rotate(41)">
                    <g id="Group_34" data-name="Group 34" transform="translate(30.85 11.311)">
                      <g id="Group_30" data-name="Group 30" transform="translate(4.167)">
                        <path id="Path_28" data-name="Path 28" d="M1.917,11.833S-.162,7.289.01,4.884.357.608,1.917.875,4,3.013,5.382,2.746,7.115.341,9.368.875s2.079,2.138,3.985,1.871S16.3-1.8,17.859.875s.865,4.811,0,6.681-1.733,4.276-1.733,4.276Z" transform="translate(0.076)" fill="#80e2e2"/>
                        <path id="Path_29" data-name="Path 29" d="M.18,0S1.272,2.94,3,2.94s3.117-3.207,5.2-1.6,3.291,2.405,4.85,1.6,3.291-2.673,3.984-1.6,1.732,0,1.732,0a19.03,19.03,0,0,1-.9,3.617c-.693,1.938-1.411,4.134-1.411,4.134H1.965A33.035,33.035,0,0,1,.049,2.94,9.188,9.188,0,0,1,.18,0Z" transform="translate(0 2.746)" fill="url(#linear-gradient-4)"/>
                      </g>
                      <path id="Path_30" data-name="Path 30" d="M6.087.268S-.224,13.652.006,18.471s.574,6.492,5.966,8.566,10.1,1.539,15.6-.268a6.327,6.327,0,0,0,4.533-7.094L20.486,0Z" transform="translate(0 14.196)" fill="url(#linear-gradient-5)"/>
                      <rect id="Rectangle_28" data-name="Rectangle 28" width="16.554" height="3.01" rx="1.505" transform="translate(4.535 11.287)" fill="#e5e1e1"/>
                      <g id="Group_16" data-name="Group 16" transform="translate(8.004 20.119)">
                        <path id="Path_15" data-name="Path 15" d="M0,0V18.02H2.595V0Z" transform="translate(3.728)" fill="url(#linear-gradient-6)"/>
                        <path id="Path_16" data-name="Path 16" d="M8.917.622A9.212,9.212,0,0,0,4.933.02a6.041,6.041,0,0,0-3.289,1.2A4.567,4.567,0,0,0,.083,4.041a4.628,4.628,0,0,0,.4,2.789,4.313,4.313,0,0,0,2.131,2.3,12.938,12.938,0,0,0,3.8.417c.758.136,1.247,1.007,1.384,2.1S7.643,12.736,6.693,13.5a3.488,3.488,0,0,1-2.5.463L1.319,13.5v1.853a11.478,11.478,0,0,0,4.17.556,4.179,4.179,0,0,0,3.845-2.27,3.486,3.486,0,0,0,.6-2.872A6.773,6.773,0,0,0,7.573,7.8c-1.529-.88-2.455.139-3.752-.556A2.432,2.432,0,0,1,2.246,4.606,2.4,2.4,0,0,1,4.191,2.012c1.645-.486,4.725.463,4.725.463Z" transform="translate(0 1.092)" fill="url(#linear-gradient-6)"/>
                      </g>
                    </g>
                    <g id="Group_31" data-name="Group 31" transform="translate(3.01 0)">
                      <g id="Group_30-2" data-name="Group 30" transform="translate(5.275)">
                        <path id="Path_28-2" data-name="Path 28" d="M2.425,14.977S-.206,9.226.013,6.182.452.769,2.425,1.108,5.057,3.814,6.812,3.476,9,.431,11.856,1.108,14.488,3.814,16.9,3.476s3.728-5.751,5.7-2.368,1.1,6.089,0,8.457-2.193,5.412-2.193,5.412Z" transform="translate(0.096)" fill="#80e2e2"/>
                        <path id="Path_29-2" data-name="Path 29" d="M.227,0S1.61,3.721,3.8,3.721s3.947-4.059,6.577-2.03,4.166,3.044,6.139,2.03,4.166-3.383,5.043-2.03,2.192,0,2.192,0a24.077,24.077,0,0,1-1.144,4.578c-.877,2.452-1.786,5.232-1.786,5.232H2.487S.269,6.089.063,3.721A11.615,11.615,0,0,1,.227,0Z" transform="translate(0 3.476)" fill="url(#linear-gradient-4)"/>
                      </g>
                      <path id="Path_30-2" data-name="Path 30" d="M7.7.339S-.283,17.28.008,23.378s.726,8.216,7.551,10.842,12.779,1.948,19.749-.339A8.007,8.007,0,0,0,33.044,24.9L25.929,0Z" transform="translate(0 17.969)" fill="url(#linear-gradient-5)"/>
                      <rect id="Rectangle_28-2" data-name="Rectangle 28" width="21.068" height="3.01" rx="1.505" transform="translate(6.04 15.073)" fill="#e5e1e1"/>
                      <g id="Group_16-2" data-name="Group 16" transform="translate(10.131 25.465)">
                        <path id="Path_15-2" data-name="Path 15" d="M0,0V22.808H3.283V0Z" transform="translate(4.719)" fill="url(#linear-gradient-6)"/>
                        <path id="Path_16-2" data-name="Path 16" d="M11.286.788A11.661,11.661,0,0,0,6.243.025,7.647,7.647,0,0,0,2.08,1.55,5.782,5.782,0,0,0,.105,5.115a5.863,5.863,0,0,0,.509,3.53,5.461,5.461,0,0,0,2.7,2.913c1.878.728,4.038.388,4.815.528.96.172,1.578,1.275,1.752,2.657s-.2,1.378-1.407,2.345a4.414,4.414,0,0,1-3.167.586L1.67,17.088v2.345a14.527,14.527,0,0,0,5.277.7c2.58-.235,3.547-.85,4.866-2.873a4.411,4.411,0,0,0,.762-3.635,8.573,8.573,0,0,0-2.99-3.752c-1.935-1.114-3.108.176-4.75-.7S2.726,7.354,2.842,5.83s.381-2.668,2.463-3.284,5.98.586,5.98.586Z" transform="translate(0 1.382)" fill="url(#linear-gradient-6)"/>
                      </g>
                    </g>
                    <g id="Group_33" data-name="Group 33" transform="translate(0 36.894)">
                      <g id="Group_30-3" data-name="Group 30" transform="translate(1.958)">
                        <path id="Path_28-3" data-name="Path 28" d="M.9,5.558A9.634,9.634,0,0,1,0,2.294C.086,1.164.167.286.9.411s.977,1,1.628.879S3.342.16,4.4.411s.977,1,1.872.879S7.656-.844,8.389.411a3.076,3.076,0,0,1,0,3.139c-.407.879-.814,2.009-.814,2.009Z" transform="translate(0.036)" fill="#80e2e2"/>
                        <path id="Path_29-3" data-name="Path 29" d="M.085,0S.6,1.381,1.411,1.381,2.876-.126,3.852.628s1.546,1.13,2.278.753S7.677.126,8,.628s.813,0,.813,0a8.94,8.94,0,0,1-.424,1.7c-.326.91-.663,1.942-.663,1.942H.923a15.5,15.5,0,0,1-.9-2.887A4.315,4.315,0,0,1,.085,0Z" transform="translate(0 1.29)" fill="url(#linear-gradient-4)"/>
                      </g>
                      <path id="Path_30-3" data-name="Path 30" d="M2.859.126S-.1,6.413,0,8.676s.27,3.049,2.8,4.024a10.171,10.171,0,0,0,7.329-.126,2.972,2.972,0,0,0,2.129-3.332L9.623,0Z" transform="translate(0 6.669)" fill="url(#linear-gradient-5)"/>
                      <rect id="Rectangle_28-3" data-name="Rectangle 28" width="7.524" height="1.505" rx="0.752" transform="translate(2.278 5.267)" fill="#e5e1e1"/>
                      <g id="Group_16-3" data-name="Group 16" transform="translate(3.76 9.451)">
                        <path id="Path_15-3" data-name="Path 15" d="M0,0V8.465H1.219V0Z" transform="translate(1.751)" fill="url(#linear-gradient-6)"/>
                        <path id="Path_16-3" data-name="Path 16" d="M4.188.292A4.327,4.327,0,0,0,2.317.009,2.837,2.837,0,0,0,.772.575,2.145,2.145,0,0,0,.039,1.9a2.174,2.174,0,0,0,.189,1.31,2.027,2.027,0,0,0,1,1.081,6.079,6.079,0,0,0,1.787.2c.356.064.586.473.65.986s-.076.511-.522.87a1.639,1.639,0,0,1-1.176.218L.62,6.342v.87a5.39,5.39,0,0,0,1.958.261A1.963,1.963,0,0,0,4.385,6.407a1.638,1.638,0,0,0,.283-1.349,3.183,3.183,0,0,0-1.11-1.393C2.839,3.252,2.4,3.73,1.795,3.4a1.142,1.142,0,0,1-.74-1.24A1.127,1.127,0,0,1,1.969.945a5.2,5.2,0,0,1,2.22.218Z" transform="translate(0 0.513)" fill="url(#linear-gradient-6)"/>
                      </g>
                    </g>
                  </g>
                  <g id="Awan-2" data-name="Awan" transform="translate(4.264 72.011)">
                    <path id="Path_31-2" data-name="Path 31" d="M4172.667,704.958V676.031s24.579-3.825,40.631-2.759,16.3,3.01,23.577,7.023,5.518,9.029,5.518,9.029.5-8.528,7.524-6.02,6.02,8.528,6.02,8.528,8.026-7.023,13.042,0,2.508,13.126,2.508,13.126Z" transform="translate(-4172.667 -673.084)" fill="#fff" opacity="0.6"/>
                    <path id="Path_32-2" data-name="Path 32" d="M4172.667,704.958V676.031s17.326-3.825,28.642-2.759,11.492,3.01,16.619,7.023,3.891,9.029,3.891,9.029.353-8.528,5.3-6.02,4.243,8.528,4.243,8.528,5.657-7.023,9.193,0a19.425,19.425,0,0,1,1.769,13.126Z" transform="translate(-4172.667 -673.084)" fill="#fff" opacity="0.6"/>
                  </g>
                </g>
              </g>
            </g>
            <g id="Group_46" data-name="Group 46" transform="translate(142.095 105.019)">
              <g id="Group_11" data-name="Group 11">
                <g id="Group_9" data-name="Group 9" transform="translate(0)">
                  <g id="Group_8" data-name="Group 8">
                    <g id="Group_7" data-name="Group 7" transform="translate(0 162.946)">
                      <path id="Path_11" data-name="Path 11" d="M11.745,0H249.478l15.139,87.467H-9Z" transform="translate(9)" fill="#9a9595"/>
                      <path id="Path_10" data-name="Path 10" d="M13.5,0H251.235l13.457,79.057H-5Z" transform="translate(7.243)" fill="url(#linear-gradient-16)"/>
                    </g>
                    <g id="Group_6" data-name="Group 6" transform="translate(55.179)">
                      <path id="Path_4" data-name="Path 4" d="M3922.294,618.4s7.569-.561,7.849,1.4a11.428,11.428,0,0,0,1.963,4.205s2.523-1.121,7.289,1.963a60.523,60.523,0,0,1,9.812,8.691l2.242,8.41s6.168,18.783,5.607,21.867,7.569,33.361,7.569,33.361l-3.925,19.344s-5.046,10.653-7.009,10.653-13.176-2.243-13.176-2.243l-55.788,2.243H3829.5l2.523-93.635,18.5-14.858,21.026-2.8Z" transform="translate(-3800.856 -557.781)" fill="#80e2e2"/>
                      <path id="Path_6" data-name="Path 6" d="M3791.115,793.79l-6.728-10.092s-4.485-9.251-3.925-12.335,1.962-12.335,1.962-12.335l1.962-9.532s12.055-5.887,16.82-1.682,5.888,9.251,5.888,11.214.28,5.607,0,9.812,14.2,20.746,8.035,24.951-13.923,8.373-13.923,8.373Z" transform="translate(-3780.414 -611.219)" fill="#f5e4bc"/>
                      <path id="Path_5" data-name="Path 5" d="M3825.795,623.986a36.562,36.562,0,0,0-8.971,2.8s-9.812,14.3-11.214,15.139-2.8,8.691-3.925,10.933-5.887,12.615-5.887,12.615-4.766,9.812-5.327,13.176-1.4,7.85-1.4,7.85l-5.607,7.85-1.963,6.168s12.055.561,14.3,1.121,7.009,3.645,7.009,3.645l6.448,7.009,5.607-5.327,1.962-6.448,5.327-11.214,3.645-7.009,1.121-19.9,1.4-11.494,1.121-14.578S3830,623.425,3825.795,623.986Z" transform="translate(-3779.209 -560.842)" fill="#80e2e2"/>
                      <path id="Path_9" data-name="Path 9" d="M31.22,0c9.933,0,23.549,15.419,23.549,15.419s1.4,15.109,1.4,21.867c0,19.2-7.66,26.913-22.988,26.913S8.232,56.485,8.232,37.286c0-7.507-1.284-15.552,1.121-21.867A23.73,23.73,0,0,1,31.22,0Z" transform="translate(65.828 17.167)" fill="#fff2d5"/>
                      <path id="Path_8" data-name="Path 8" d="M3950.342,564.153c-.49-5.467,2.523-17.1,0-19.344s-5.327-7.289-8.13-4.486-5.887,5.256-11.494,5.607-6.518-2.8-10.933-4.205-3.855-2.173-6.728-1.4-4.766,4.486-4.766,4.486-.841,16.821,0,19.344-.561,7.569-2.8,0-7.57-25.792-6.167-30.277,1.962-8.13,6.167-10.373a7.623,7.623,0,0,1,7.569,0s-.841-11.214,12.335-12.055,31.4,6.448,35.043,14.578-1.682,18.783-1.682,18.783l-4.205,19.344S3950.832,569.62,3950.342,564.153Z" transform="translate(-3831.988 -511.382)" fill="url(#linear-gradient-17)"/>
                      <path id="Path_3" data-name="Path 3" d="M3938.478,635.35s3.085-9.046,6.449-10.168,5.607-1.682,5.607-1.682,1.962,2.8,0,3.925-3.645,5.887-3.645,5.887a17.257,17.257,0,0,0-1.962,6.728v7.289s0,3.645,1.962,4.205,3.645,5.327,3.645,5.327l4.205,5.887,37.285,41.771s6.448,16.821,2.243,20.465-10.093,10.092-10.093,10.092-7.009,0-9.531-3.644-12.055-9.532-15.419-16.26-6.728-24.39-8.691-25.511-10.373-19.063-10.373-19.063-3.925-7.85-8.971-7.85a9.317,9.317,0,0,1-7.569-4.205s-4.486-4.766-7.009-4.766-7.289-2.243-7.289-2.243-1.962-2.523-1.4-4.205,1.121-11.063,1.4-11.98,2.523-4.28,5.046-4.841,5.046-.561,9.252,0,9.812,4.841,9.812,4.841Z" transform="translate(-3828.535 -556.712)" fill="#fbe7b8"/>
                      <path id="Path_7" data-name="Path 7" d="M3801,849.011V775h124.473v74.011Z" transform="translate(-3783.851 -627.192)" fill="#efefef"/>
                    </g>
                  </g>
                  <text id="_freelancer_" data-name="&lt;freelancer&gt;" transform="translate(104.685 171.598)" fill="#80e2e2" font-size="12" font-family="SegoeUI, Segoe UI"><tspan x="0" y="13">&lt;freelancer</tspan></text>
                </g>
              </g>
            </g>
          </g>
        </g>
      </g>
      <g id="Group_52" data-name="Group 52" transform="translate(338.598 202.836)">
        <line id="Line_9" data-name="Line 9" x2="202.872" transform="translate(4.128 5.308)" fill="none" stroke="#0f0f0f" stroke-width="1"/>
        <line id="Line_11" data-name="Line 11" x2="89.641" transform="translate(67.821 44.231)" fill="none" stroke="#0f0f0f" stroke-width="1"/>
        <path id="Path_51" data-name="Path 51" d="M0,41.7V1.67" transform="translate(69 3.715)" fill="none" stroke="#0f0f0f" stroke-width="1"/>
        <line id="Line_12" data-name="Line 12" y1="41.282" transform="translate(156.282 4.128)" fill="none" stroke="#0f0f0f" stroke-width="1"/>
        <circle id="Ellipse_11" data-name="Ellipse 11" cx="4.891" cy="4.891" r="4.891" transform="translate(0 0)" fill="#443efc"/>
        <circle id="Ellipse_12" data-name="Ellipse 12" cx="4.891" cy="4.891" r="4.891" transform="translate(31.602 0)" fill="#443efc"/>
        <ellipse id="Ellipse_14" data-name="Ellipse 14" cx="4.515" cy="4.891" rx="4.515" ry="4.891" transform="translate(103.837 0)" fill="#443efc"/>
        <circle id="Ellipse_16" data-name="Ellipse 16" cx="4.891" cy="4.891" r="4.891" transform="translate(151.993 0)" fill="#443efc"/>
        <circle id="Ellipse_17" data-name="Ellipse 17" cx="4.891" cy="4.891" r="4.891" transform="translate(201.654 0)" fill="#443efc"/>
        <circle id="Ellipse_13" data-name="Ellipse 13" cx="4.891" cy="4.891" r="4.891" transform="translate(64.71 39.879)" fill="#36ec4e"/>
        <circle id="Ellipse_15" data-name="Ellipse 15" cx="4.891" cy="4.891" r="4.891" transform="translate(151.993 39.879)" fill="#36ec4e"/>
      </g>
    </g>
    <g id="Group_67" data-name="Group 67" transform="translate(494.481 352.055)">
      <ellipse id="Ellipse_21" data-name="Ellipse 21" cx="37.5" cy="9" rx="37.5" ry="9" transform="translate(94.519 182.945)" opacity="0.49"/>
      <g id="Group_64" data-name="Group 64" transform="matrix(0.921, 0.391, -0.391, 0.921, 47.24, 8.277)">
        <path id="Path_68" data-name="Path 68" d="M123.972,120.9S108.589,44.725,61.451,35.922,0,39.213,0,39.213,12.524,18.235,30.767,7.952,69.1.3,69.1.3s37.266,4.36,54.87,38.911S141.495,120.9,141.495,120.9Z" fill="url(#linear-gradient-18)"/>
        <path id="Path_69" data-name="Path 69" d="M0,7.765S13.84,1.049,27.259.119,53.677,4.043,53.677,4.043a40.077,40.077,0,0,1,17.477,9.682c8.374,7.832,11.51,12.63,17.374,22.891C98.4,53.891,100.945,79.6,100.945,79.6S92.483,51.663,84.038,36.615,67.5,15.22,67.5,15.22,62.657,10.232,52.6,7.2,40.409,2.946,27.259,3.088,0,7.765,0,7.765Z" transform="translate(27.219 14.608)" fill="#b9b9b9"/>
      </g>
      <g id="Group_65" data-name="Group 65" transform="matrix(-0.921, 0.391, -0.391, -0.921, 260.255, 111.29)">
        <path id="Path_68-2" data-name="Path 68" d="M123.972,0S108.589,76.177,61.451,84.979,0,81.689,0,81.689s12.524,20.977,30.767,31.26S69.1,120.6,69.1,120.6s37.266-4.36,54.87-38.911S141.495,0,141.495,0Z" transform="translate(0 0)" fill="url(#linear-gradient-19)"/>
        <path id="Path_69-2" data-name="Path 69" d="M0,71.835s13.84,6.716,27.259,7.647,26.418-3.924,26.418-3.924a40.076,40.076,0,0,0,17.477-9.681c8.374-7.832,11.51-12.63,17.374-22.891C98.4,25.709,100.945,0,100.945,0S92.483,27.937,84.038,42.985,67.5,64.38,67.5,64.38,62.657,69.368,52.6,72.4s-12.189,4.253-25.339,4.111S0,71.835,0,71.835Z" transform="translate(27.219 26.693)" fill="#b9b9b9"/>
      </g>
      <g id="Group_63" data-name="Group 63" transform="translate(1.828 49.492)">
        <path id="Path_68-3" data-name="Path 68" d="M3798.765,2000.289s-13.578-67.235-55.182-75-54.238,2.9-54.238,2.9,11.054-18.515,27.155-27.591,33.835-6.753,33.835-6.753,32.891,3.848,48.429,34.344,15.465,72.1,15.465,72.1Z" transform="translate(-3689.346 -1893.58)" fill="url(#linear-gradient-18)"/>
        <path id="Path_69-3" data-name="Path 69" d="M3721.273,1917.569s12.215-5.928,24.059-6.749,23.317,3.463,23.317,3.463a35.373,35.373,0,0,1,15.425,8.545c7.391,6.912,10.159,11.147,15.334,20.2,8.713,15.248,10.96,37.939,10.96,37.939s-7.469-24.658-14.923-37.939-14.6-18.884-14.6-18.884-4.271-4.4-13.15-7.08-10.758-3.754-22.364-3.629S3721.273,1917.569,3721.273,1917.569Z" transform="translate(-3697.25 -1897.822)" fill="#b9b9b9"/>
      </g>
      <g id="Group_66" data-name="Group 66" transform="translate(128.99 76.58)">
        <path id="Path_68-4" data-name="Path 68" d="M3704.811,2000.289s13.578-67.235,55.182-75,54.237,2.9,54.237,2.9-11.054-18.515-27.155-27.591-33.835-6.753-33.835-6.753-32.891,3.848-48.429,34.344-15.465,72.1-15.465,72.1Z" transform="translate(-3689.346 -1893.58)" fill="url(#linear-gradient-21)"/>
        <path id="Path_69-4" data-name="Path 69" d="M3810.369,1917.569s-12.215-5.928-24.059-6.749-23.316,3.463-23.316,3.463a35.373,35.373,0,0,0-15.426,8.545c-7.391,6.912-10.158,11.147-15.334,20.2-8.713,15.248-10.96,37.939-10.96,37.939s7.469-24.658,14.923-37.939,14.6-18.884,14.6-18.884,4.271-4.4,13.15-7.08,10.759-3.754,22.364-3.629S3810.369,1917.569,3810.369,1917.569Z" transform="translate(-3709.507 -1897.822)" fill="#b9b9b9"/>
      </g>
      <g id="Group_62" data-name="Group 62" transform="translate(103.789 140.172)">
        <path id="Path_65" data-name="Path 65" d="M0,0H37.542L27.529,53.353H0Z" transform="translate(18.6 0)" fill="url(#linear-gradient-22)"/>
        <path id="Path_66" data-name="Path 66" d="M37.542,0H0L10.012,53.353H37.542Z" transform="translate(0 0)" fill="url(#linear-gradient-22)"/>
      </g>
    </g>
  </g>
</svg>
