<svg xmlns="http://www.w3.org/2000/svg" xmlns:xlink="http://www.w3.org/1999/xlink" width="908.881" height="530.289" viewBox="0 0 908.881 530.289">
  <defs>
    <linearGradient id="linear-gradient" x1="0.5" x2="0.5" y2="1" gradientUnits="objectBoundingBox">
      <stop offset="0" stop-color="#80e2e2"/>
      <stop offset="1" stop-color="#407171"/>
    </linearGradient>
    <linearGradient id="linear-gradient-2" x1="0.048" y1="-0.373" x2="0.632" y2="1.196" gradientUnits="objectBoundingBox">
      <stop offset="0" stop-color="#ea56f4"/>
      <stop offset="1" stop-color="#80e2e2"/>
    </linearGradient>
    <linearGradient id="linear-gradient-3" x1="0.5" x2="0.717" y2="1.323" gradientUnits="objectBoundingBox">
      <stop offset="0" stop-color="#80e2e2"/>
      <stop offset="1" stop-color="aqua"/>
    </linearGradient>
  </defs>
  <g id="produktivitas" transform="translate(-92 -85)">
    <path id="Path_75" data-name="Path 75" d="M454.441,4.627c167.649-114.6,454.441,122.343,454.441,273.26s-296.861-37.74-485.453,147.946S0,428.8,0,277.887,286.792,119.228,454.441,4.627Z" transform="translate(92 111)" fill="#443efc" opacity="0.18"/>
    <g id="Group_78" data-name="Group 78">
      <ellipse id="Ellipse_25" data-name="Ellipse 25" cx="324.5" cy="33" rx="324.5" ry="33" transform="translate(168 373)" opacity="0.68" fill="url(#linear-gradient)"/>
      <rect id="Rectangle_37" data-name="Rectangle 37" width="56" height="56" transform="translate(464 205)" fill="#ffbaba"/>
      <ellipse id="Ellipse_24" data-name="Ellipse 24" cx="51.5" cy="53.5" rx="51.5" ry="53.5" transform="translate(440 110)" fill="#ffbaba"/>
      <path id="Path_73" data-name="Path 73" d="M902.456,5361.674c-15.736,6.148-19.079,9.472-27,19.461a40.412,40.412,0,0,0-8.579,20.5l15.085-12.521s-9.277,10.317-10.9,20.915,4.4,21.476,4.4,21.476-.746-10.72,3.679-18.187c2.248-3.793,9.221-9.675,9.221-9.675l-3.6,13.383,17.7-10.213V5420.8l25.182-19.167,2.8,11.682,22.385-18.188,7.485,18.188,4.2-14.9,13.495,14.9s7.176-24.588-3.212-38.683-36.387-18.085-36.387-18.085S918.192,5355.526,902.456,5361.674Z" transform="translate(-436 -5256)" fill="#030058"/>
      <path id="Path_74" data-name="Path 74" d="M822.183,5431.323l13.662,15.995,13.184,9.928a46.63,46.63,0,0,0,18.17-9.928c8.811-7.749,10.52-15.995,10.52-15.995s-2.164-2.043,77.217,25.923l42.987,100.3-5.44,12.693s-21.557,19.441-26.9,24.176-241.054,0-241.054,0-20.146-16.822-22.161-24.176,0-21.457,0-21.457l54.4-91.54Z" transform="translate(-358 -5204)" fill="url(#linear-gradient-2)"/>
      <rect id="Rectangle_38" data-name="Rectangle 38" width="252" height="156" transform="translate(360 261)" fill="url(#linear-gradient-3)"/>
      <rect id="Rectangle_39" data-name="Rectangle 39" width="274" height="24" rx="12" transform="translate(351 393)" fill="#443efc"/>
      <g id="Group_73" data-name="Group 73" transform="translate(-54 41)">
        <rect id="Rectangle_40" data-name="Rectangle 40" width="211" height="26" rx="13" transform="translate(738 138)" fill="#80e2e2"/>
        <rect id="Rectangle_41" data-name="Rectangle 41" width="79" height="26" rx="13" transform="translate(738 138)" fill="#443efc"/>
        <text id="_30_" data-name="30%" transform="translate(743 120)" fill="#36ec4e" font-size="20" font-family="SegoeUI-Bold, Segoe UI" font-weight="700"><tspan x="0" y="0">30%</tspan></text>
      </g>
      <g id="Group_74" data-name="Group 74" transform="translate(20 179)">
        <rect id="Rectangle_40-2" data-name="Rectangle 40" width="211" height="26" rx="13" transform="translate(738 138)" fill="#80e2e2"/>
        <rect id="Rectangle_41-2" data-name="Rectangle 41" width="120" height="26" rx="13" transform="translate(738 138)" fill="#443efc"/>
        <text id="_50_" data-name="50%" transform="translate(743 120)" fill="#36ec4e" font-size="20" font-family="SegoeUI-Bold, Segoe UI" font-weight="700"><tspan x="0" y="0">50%</tspan></text>
      </g>
      <g id="Group_75" data-name="Group 75" transform="translate(125 194)">
        <rect id="Rectangle_40-3" data-name="Rectangle 40" width="211" height="26" rx="13" transform="translate(0 40)" fill="#80e2e2"/>
        <rect id="Rectangle_41-3" data-name="Rectangle 41" width="147" height="26" rx="13" transform="translate(64 40)" fill="#443efc"/>
        <text id="_60_" data-name="60%" transform="translate(166 22)" fill="#36ec4e" font-size="20" font-family="SegoeUI-Bold, Segoe UI" font-weight="700"><tspan x="0" y="0">60%</tspan></text>
      </g>
      <g id="Group_76" data-name="Group 76" transform="translate(92 85)">
        <rect id="Rectangle_40-4" data-name="Rectangle 40" width="211" height="26" rx="13" transform="translate(0 40)" fill="#80e2e2"/>
        <rect id="Rectangle_41-4" data-name="Rectangle 41" width="56" height="26" rx="13" transform="translate(155 40)" fill="#443efc"/>
        <text id="_20_" data-name="20%" transform="translate(166 22)" fill="#36ec4e" font-size="20" font-family="SegoeUI-Bold, Segoe UI" font-weight="700"><tspan x="0" y="0">20%</tspan></text>
      </g>
      <g id="Group_77" data-name="Group 77">
        <line id="Line_13" data-name="Line 13" y2="66" transform="translate(241.5 260.5)" fill="none" stroke="#707070" stroke-width="3"/>
        <line id="Line_14" data-name="Line 14" x1="119" y1="31" transform="translate(240.5 325.5)" fill="none" stroke="#707070" stroke-width="3"/>
      </g>
      <line id="Line_15" data-name="Line 15" x2="57" transform="translate(304.5 139.5)" fill="none" stroke="#707070" stroke-width="3"/>
      <line id="Line_16" data-name="Line 16" y1="121" transform="translate(360.5 138.5)" fill="none" stroke="#707070" stroke-width="3"/>
      <line id="Line_17" data-name="Line 17" y2="103" transform="translate(708.5 205.5)" fill="none" stroke="#707070" stroke-width="3"/>
      <line id="Line_18" data-name="Line 18" x2="96" transform="translate(613.5 308.5)" fill="none" stroke="#707070" stroke-width="3"/>
      <line id="Line_19" data-name="Line 19" y2="30" transform="translate(789.5 343.5)" fill="none" stroke="#707070" stroke-width="3"/>
      <line id="Line_20" data-name="Line 20" x2="177" transform="translate(612.5 373.5)" fill="none" stroke="#707070" stroke-width="3"/>
    </g>
  </g>
</svg>
